<?xml version="1.0" encoding="utf-8"?>
<!-- Generator: Adobe Illustrator 26.0.3, SVG Export Plug-In . SVG Version: 6.00 Build 0)  -->
<svg version="1.1" id="레이어_1" xmlns="http://www.w3.org/2000/svg" x="0px"
     y="0px" viewBox="0 0 20 20" style="enable-background:new 0 0 20 20;" xml:space="preserve" width="20px"
     height="20px">
<g>
	<path d="M10,0.5c-5.24,0-9.5,4.26-9.5,9.5s4.26,9.5,9.5,9.5s9.5-4.26,9.5-9.5S15.24,0.5,10,0.5z M10,18.5c-4.69,0-8.5-3.81-8.5-8.5
		c0-4.69,3.81-8.5,8.5-8.5c4.69,0,8.5,3.81,8.5,8.5C18.5,14.69,14.69,18.5,10,18.5z"/>
    <polygon points="7.21,5.39 7.21,6.57 9.3,6.2 9.3,15.59 11.16,15.59 11.16,4.41 9.49,4.41 	"/>
</g>
</svg>
