<?xml version="1.0" encoding="utf-8"?>
<!-- Generator: Adobe Illustrator 26.0.3, SVG Export Plug-In . SVG Version: 6.00 Build 0)  -->
<svg version="1.1" id="레이어_1" xmlns="http://www.w3.org/2000/svg" x="0px"
     y="0px" viewBox="0 0 20 20" style="enable-background:new 0 0 20 20;" width="20px"
     height="20px" xml:space="preserve">
<g>
	<path d="M10,0.5c-5.24,0-9.5,4.26-9.5,9.5s4.26,9.5,9.5,9.5s9.5-4.26,9.5-9.5S15.24,0.5,10,0.5z M10,18.5c-4.69,0-8.5-3.81-8.5-8.5
		c0-4.69,3.81-8.5,8.5-8.5c4.69,0,8.5,3.81,8.5,8.5C18.5,14.69,14.69,18.5,10,18.5z"/>
    <path d="M8.99,13.71l1.89-1.88c2.09-1.97,2.66-2.94,2.67-4.13c-0.01-1.78-1.46-3.08-3.63-3.08c-2.12,0-3.63,1.3-3.62,3.31h1.82
		C8.1,6.86,8.81,6.18,9.9,6.18c1.03,0,1.82,0.62,1.82,1.61c0,0.89-0.56,1.52-1.63,2.59L6.34,14v1.38h7.37v-1.6H8.99V13.71z"/>
</g>
</svg>
