<?xml version="1.0" encoding="utf-8"?>
<!-- Generator: Adobe Illustrator 26.0.3, SVG Export Plug-In . SVG Version: 6.00 Build 0)  -->
<svg version="1.1" id="레이어_1" xmlns="http://www.w3.org/2000/svg" x="0px"
     y="0px" viewBox="0 0 20 20" style="enable-background:new 0 0 20 20;" width="20px"
     height="20px" xml:space="preserve">
<g>
	<path d="M10,0.5c-5.24,0-9.5,4.26-9.5,9.5s4.26,9.5,9.5,9.5s9.5-4.26,9.5-9.5S15.24,0.5,10,0.5z M10,18.5c-4.69,0-8.5-3.81-8.5-8.5
		c0-4.69,3.81-8.5,8.5-8.5c4.69,0,8.5,3.81,8.5,8.5C18.5,14.69,14.69,18.5,10,18.5z"/>
    <path d="M11.61,9.87V9.78c1.16-0.24,1.95-1.1,1.93-2.29c0.01-1.63-1.38-2.94-3.53-2.94c-2.07,0-3.69,1.22-3.74,3h1.83
		C8.15,6.66,9,6.1,10,6.1c1.03,0,1.71,0.6,1.7,1.49c0.01,0.92-0.78,1.55-1.9,1.55H8.84v1.46h0.95c1.38,0.01,2.2,0.69,2.2,1.64
		c0,0.94-0.84,1.59-2.01,1.58c-1.11,0.01-1.96-0.56-2.01-1.41H6.06c0.04,1.79,1.66,3.02,3.93,3.02c2.29,0,3.97-1.3,3.96-3.09
		C13.95,11.03,13.11,10.07,11.61,9.87z"/>
</g>
</svg>
