<?xml version="1.0" encoding="utf-8"?>
<!-- Generator: Adobe Illustrator 26.0.2, SVG Export Plug-In . SVG Version: 6.00 Build 0)  -->
<svg version="1.1" id="레이어_1" xmlns="http://www.w3.org/2000/svg" xmlns:xlink="http://www.w3.org/1999/xlink" x="0px"
	 y="0px" viewBox="0 0 16 16" style="enable-background:new 0 0 16 16;" xml:space="preserve">
<style type="text/css">
	.st0{stroke:#ff567c;stroke-width:0.25;stroke-miterlimit:10;}
	.st0{fill:#ff567c;}
</style>
<g>
	<path class="st0" d="M8,15c-3.9,0-7-3.1-7-7s3.1-7,7-7s7,3.1,7,7S11.9,15,8,15z M8,2C4.7,2,2,4.7,2,8s2.7,6,6,6s6-2.7,6-6
		S11.3,2,8,2z"/>
</g>
<path class="st0" d="M11.1,5.3l-0.7,2.8H9.1L8.4,5.3H7.6L6.9,8.1H5.6L4.9,5.3H4.2l0.7,2.8H4.2v0.7h0.9l0.7,2.8h0.8l0.8-2.8h1.2
	l0.8,2.8h0.8l0.7-2.8h0.9V8.1h-0.7l0.7-2.8H11.1z M8,6.6L8,6.6l0.5,1.5H7.6L8,6.6z M6.2,10.3L5.8,8.7h0.9L6.2,10.3L6.2,10.3z
	 M9.7,10.3L9.3,8.7h0.9L9.7,10.3L9.7,10.3z"/>
</svg>
