<svg class="custom" width="21" height="19" viewBox="0 0 21 19" xmlns="http://www.w3.org/2000/svg">
    <path fill-rule="evenodd" clip-rule="evenodd"
          d="M10.0299 0.5C4.49041 0.5 0 4.04993 0 8.42914C0 11.2797 1.90279 13.7774 4.758 15.1751C4.54808 15.9587 3.99834 18.0127 3.88819 18.4523C3.75257 18.9979 4.08824 18.9906 4.30803 18.8435C4.48054 18.7287 7.05673 16.9776 8.16816 16.2216C8.77142 16.311 9.39338 16.3583 10.0299 16.3583C15.5694 16.3583 20.0598 12.8078 20.0598 8.42914C20.0598 4.04993 15.5689 0.5 10.0299 0.5ZM5.99252 6.09341H3.05937C2.78346 6.09341 2.56055 6.31683 2.56055 6.59222C2.56055 6.86761 2.78398 7.09104 3.05937 7.09104H4.01284V10.6046C4.01284 10.7324 4.0648 10.8582 4.15625 10.9491C4.24562 11.0395 4.37084 11.0915 4.49919 11.0915H4.6057C4.73353 11.0915 4.85823 11.0395 4.94812 10.9491C5.03957 10.8582 5.09153 10.7329 5.09153 10.6046V7.09104H5.992C6.26791 7.09104 6.49134 6.86761 6.49134 6.59222C6.49186 6.31683 6.26843 6.09341 5.99252 6.09341ZM11.6766 10.1539H13.0405C13.291 10.1539 13.4931 10.357 13.4931 10.6064C13.4931 10.8569 13.2915 11.0595 13.0405 11.0595H11.0473C10.7969 11.0595 10.5948 10.8569 10.5948 10.6064C10.5948 10.5773 10.5979 10.5482 10.6031 10.5202C10.5984 10.4916 10.5948 10.4635 10.5948 10.4334V6.56548C10.5948 6.26619 10.8369 6.02405 11.1357 6.02405C11.4344 6.02405 11.6766 6.26619 11.6766 6.56548V10.1539ZM17.399 10.3186L15.8792 8.32225L17.2525 6.94842C17.4385 6.76293 17.4385 6.46104 17.2525 6.27502C17.0665 6.089 16.7651 6.089 16.5786 6.27502L14.8784 7.97516V6.56548C14.8784 6.26619 14.6363 6.02405 14.3375 6.02405C14.0388 6.02405 13.7961 6.26619 13.7961 6.56548V10.5524C13.7961 10.8517 14.0382 11.0938 14.3375 11.0938C14.6363 11.0938 14.8784 10.8522 14.8784 10.5524V9.32249L15.1876 9.01384L16.6253 10.9005C16.7854 11.1141 17.0893 11.1582 17.3029 10.9966C17.5165 10.8361 17.5596 10.5321 17.399 10.3186ZM8.72774 6.4485L10.1894 10.4474C10.2782 10.7004 10.1452 10.9774 9.89269 11.0657C9.64016 11.1545 9.36322 11.0215 9.27436 10.769L9.02599 10.0592H7.02552L6.77663 10.769C6.68778 11.0215 6.41083 11.1545 6.15831 11.0657C5.9063 10.9768 5.77328 10.7004 5.86213 10.4474L7.29935 6.59191C7.30767 6.56905 7.31754 6.54775 7.32741 6.52645L7.32741 6.52644C7.38613 6.24118 7.68126 6.02295 8.03823 6.02295C8.35986 6.02295 8.62954 6.20013 8.72307 6.44383C8.7241 6.44539 8.72774 6.4485 8.72774 6.4485ZM8.01537 7.23466L7.343 9.15304H8.70904L8.03719 7.23674C8.03329 7.23674 8.02979 7.23622 8.02628 7.2357C8.02277 7.23518 8.01926 7.23466 8.01537 7.23466Z"
          fill="currentColor" fill-opacity="0.87"/>
</svg>
