<?xml version="1.0" encoding="utf-8"?>
<!-- Generator: Adobe Illustrator 26.0.3, SVG Export Plug-In . SVG Version: 6.00 Build 0)  -->
<svg version="1.1" id="레이어_1" xmlns="http://www.w3.org/2000/svg" x="0px"
     y="0px" viewBox="0 0 128 23.23" style="enable-background:new 0 0 128 23.23;" xml:space="preserve">
<style type="text/css">
	.st0{fill:#ff567c;}
</style>
    <g>
	<path class="st0" d="M24.07,5.1l-7.41-4.27c-1.91-1.1-4.25-1.1-6.16,0L3.09,5.1C1.18,6.2,0,8.24,0,10.45v8
		c0,1.91,1.02,3.68,2.68,4.64c0.35,0.2,0.8,0.09,1-0.26c0.04-0.06,0.07-0.13,0.08-0.21c0.93-4.22,3.23-6.63,6.31-6.63
		c1.54,0,3.03,0.56,4.2,1.56c-0.67,0.7-1.05,1.62-1.08,2.59c-0.16,1.06,0.58,2.05,1.64,2.2c0.12,0.02,0.24,0.02,0.36,0.02
		c1.2-0.06,2.12-1.08,2.05-2.28c0-0.01,0-0.03,0-0.04c-0.01-0.83-0.3-1.63-0.83-2.27c0.57-0.22,1.18-0.33,1.79-0.31
		c2.58,0,4.52,1.93,5.19,5.18c0.07,0.34,0.36,0.58,0.71,0.58h0.15c0.4-0.08,0.65-0.46,0.57-0.86c0,0,0-0.01,0-0.01
		c-0.59-2.9-2.08-4.95-4.13-5.84c1.14-1.13,1.14-2.96,0.01-4.1c-1.13-1.14-2.97-1.14-4.1-0.01c-1.05,1.04-1.15,2.7-0.23,3.85
		c-0.32,0.09-0.62,0.21-0.91,0.37c-0.77-0.71-1.67-1.26-2.65-1.62c1.76-1.49,1.97-4.13,0.48-5.89C11.8,7.34,9.16,7.13,7.4,8.62
		c-1.76,1.49-1.97,4.13-0.48,5.89c0.17,0.2,0.35,0.38,0.55,0.54c-0.7,0.3-1.35,0.71-1.92,1.22c-1.43,1.35-2.44,3.09-2.9,5
		c-0.73-0.74-1.14-1.73-1.15-2.76v-8c0-1.68,0.9-3.24,2.36-4.08l7.41-4.27c1.45-0.84,3.25-0.84,4.7,0l7.41,4.27
		c1.45,0.84,2.35,2.4,2.35,4.08v8c0.05,0.41,0.41,0.7,0.82,0.65c0.34-0.04,0.61-0.31,0.65-0.65v-8C27.21,8.28,26.01,6.21,24.07,5.1z
		 M18.6,13.03c0.79,0,1.43,0.64,1.43,1.43s-0.64,1.43-1.43,1.43s-1.43-0.64-1.43-1.43S17.81,13.03,18.6,13.03L18.6,13.03z
		 M15.23,18.69c0.32,0.38,0.5,0.86,0.5,1.35c0,0.41-0.22,0.85-0.58,0.85s-0.5,0-0.5-0.75C14.67,19.61,14.87,19.1,15.23,18.69z
		 M10.07,9.08c1.51,0,2.73,1.22,2.73,2.73s-1.22,2.73-2.73,2.73s-2.73-1.22-2.73-2.73l0,0C7.34,10.3,8.56,9.08,10.07,9.08
		C10.07,9.08,10.07,9.08,10.07,9.08z"/>
        <path class="st0" d="M55.69,19.73c0.87,0,1.22,0.45,1.22,1.38s-0.35,1.36-1.22,1.36H36.76c-0.85,0-1.22-0.42-1.22-1.36
		s0.37-1.38,1.22-1.38h4.12v-3c0-0.89,0.49-1.29,1.5-1.29s1.5,0.4,1.5,1.29v3h4.71v-3c0-0.89,0.49-1.29,1.5-1.29s1.5,0.4,1.5,1.29v3
		H55.69z M42.29,14.14c-4.06,0-5.74-3-5.74-6.11s1.68-6.1,5.74-6.1h7.82c4.06,0,5.75,3,5.75,6.1s-1.69,6.11-5.75,6.11H42.29z
		 M42.57,4.62c-2.77,0-3.12,2.15-3.12,3.4s0.35,3.42,3.12,3.42h7.26c2.77,0,3.12-2.18,3.12-3.42s-0.35-3.4-3.12-3.4H42.57z"/>
        <path class="st0" d="M79.12,19.73c0.87,0,1.22,0.45,1.22,1.38s-0.35,1.36-1.22,1.36H60.19c-0.85,0-1.22-0.42-1.22-1.36
		s0.37-1.38,1.22-1.38h8v-3.28c0-0.87,0.47-1.26,1.48-1.26s1.47,0.39,1.47,1.26v3.28H79.12z M61.73,14.17c-1,0-1.42-0.43-1.42-1.43
		V3.08c0-1,0.44-1.38,1.42-1.38s1.48,0.42,1.48,1.38V5.8h12.87V3.08c0-1,0.51-1.38,1.43-1.38s1.47,0.42,1.47,1.38v9.66
		c0,1-0.42,1.43-1.43,1.43H61.73z M76.08,8.49H63.21v3h12.87V8.49z"/>
        <path class="st0" d="M95.86,22.35l-0.44,0.16c-0.59,0.21-1.25-0.06-1.52-0.62l-4.61-9.66l-4.66,9.66
		c-0.27,0.57-0.92,0.84-1.51,0.62l-0.45-0.16c-0.63-0.23-0.96-0.93-0.72-1.57c0.01-0.04,0.03-0.07,0.04-0.1l5.78-12.2V2.78
		c0-0.87,0.51-1.29,1.5-1.29s1.5,0.42,1.5,1.29v5.71l5.77,12.2c0.29,0.61,0.03,1.34-0.58,1.63C95.93,22.33,95.9,22.34,95.86,22.35z"
        />
        <path class="st0" d="M103.47,9.67c0.84,0,1.19,0.46,1.19,1.4c0,0.94-0.35,1.46-1.19,1.46h-2.23v9.25c0,0.89-0.49,1.31-1.48,1.31
		s-1.47-0.42-1.47-1.31V2.52c0-0.87,0.49-1.31,1.47-1.31s1.48,0.44,1.48,1.31v7.15H103.47z"/>
        <path class="st0" d="M107.8,13.46c-0.94,0-1.36-0.42-1.36-1.36V7.7c0-0.94,0.42-1.36,1.36-1.36h7.92V4.62h-8.06
		c-0.87,0-1.22-0.42-1.22-1.31s0.35-1.36,1.22-1.36h9.58c1,0,1.41,0.45,1.41,1.39v4.28c0,0.94-0.42,1.36-1.36,1.36h-7.92v1.85h9
		c0.84,0,1.21,0.42,1.21,1.31c0,0.89-0.37,1.36-1.21,1.36L107.8,13.46z M120.52,14.73c3,0,4.88,1.5,4.88,4.24s-1.9,4.26-4.92,4.26
		h-8.06c-3,0-4.9-1.5-4.9-4.26s1.85-4.24,4.9-4.24H120.52z M120.64,20.58c1.29,0,1.85-0.71,1.85-1.62c0-0.91-0.56-1.59-1.85-1.59
		h-8.36c-1.32,0-1.86,0.7-1.86,1.59c0,0.89,0.58,1.65,1.86,1.65L120.64,20.58z M126.8,5.96c0.85,0,1.2,0.47,1.2,1.41
		s-0.35,1.43-1.2,1.43h-1.89v4.08c0,0.89-0.47,1.26-1.5,1.26s-1.5-0.37-1.5-1.26V2.47c0-0.86,0.51-1.26,1.5-1.26s1.5,0.4,1.5,1.26
		v3.49H126.8z"/>
</g>
</svg>
