<svg id="레이어_1" data-name="레이어 1" xmlns="http://www.w3.org/2000/svg" viewBox="0 0 180 80"><defs><style>.cls-1{fill:#ff567c;}</style></defs><path class="cls-1" d="M50.07,33.48l-7.41-4.27a6.16,6.16,0,0,0-6.16,0l-7.41,4.27A6.19,6.19,0,0,0,26,38.83v8a5.37,5.37,0,0,0,2.68,4.64A.73.73,0,0,0,29.76,51c.93-4.22,3.23-6.63,6.31-6.63a6.47,6.47,0,0,1,4.2,1.56,3.92,3.92,0,0,0-1.08,2.59,1.94,1.94,0,0,0,2,2.22,2.17,2.17,0,0,0,2.05-2.32,3.66,3.66,0,0,0-.83-2.27,4.52,4.52,0,0,1,1.79-.31c2.58,0,4.52,1.93,5.19,5.18a.72.72,0,0,0,.71.58h.15a.73.73,0,0,0,.57-.87c-.59-2.9-2.08-4.95-4.13-5.84a2.9,2.9,0,1,0-4.32-.26,4.13,4.13,0,0,0-.91.37,7.87,7.87,0,0,0-2.65-1.62,4.18,4.18,0,1,0-5.34.06,6.76,6.76,0,0,0-1.92,1.22,10.18,10.18,0,0,0-2.9,5,4,4,0,0,1-1.15-2.76v-8a4.73,4.73,0,0,1,2.36-4.08l7.41-4.27a4.7,4.7,0,0,1,4.7,0l7.41,4.27a4.72,4.72,0,0,1,2.35,4.08v8a.74.74,0,0,0,1.47,0v-8A6.21,6.21,0,0,0,50.07,33.48ZM44.6,41.41a1.43,1.43,0,1,1-1.43,1.43A1.43,1.43,0,0,1,44.6,41.41Zm-3.37,5.67a2.12,2.12,0,0,1,.5,1.35c0,.41-.22.85-.58.85s-.5,0-.5-.75A2.3,2.3,0,0,1,41.23,47.08Zm-5.16-9.62a2.73,2.73,0,1,1-2.73,2.73A2.73,2.73,0,0,1,36.07,37.46Z"/><path class="cls-1" d="M81.69,48.12c.87,0,1.22.45,1.22,1.38s-.35,1.36-1.22,1.36H62.76c-.85,0-1.22-.42-1.22-1.36s.37-1.38,1.22-1.38h4.12v-3c0-.89.49-1.29,1.5-1.29s1.5.4,1.5,1.29v3h4.71v-3c0-.89.49-1.29,1.5-1.29s1.5.4,1.5,1.29v3Zm-13.4-5.6c-4.06,0-5.74-3-5.74-6.11s1.68-6.1,5.74-6.1h7.82c4.06,0,5.75,3,5.75,6.1s-1.69,6.11-5.75,6.11ZM68.57,33c-2.77,0-3.12,2.15-3.12,3.4s.35,3.42,3.12,3.42h7.26c2.77,0,3.12-2.18,3.12-3.42S78.6,33,75.83,33Z"/><path class="cls-1" d="M105.12,48.12c.87,0,1.22.45,1.22,1.38s-.35,1.36-1.22,1.36H86.19c-.85,0-1.22-.42-1.22-1.36s.37-1.38,1.22-1.38h8V44.84c0-.87.47-1.26,1.48-1.26s1.47.39,1.47,1.26v3.28ZM87.73,42.55c-1,0-1.42-.43-1.42-1.43V31.46c0-1,.44-1.38,1.42-1.38s1.48.42,1.48,1.38v2.72h12.87V31.46c0-1,.51-1.38,1.43-1.38s1.47.42,1.47,1.38v9.66c0,1-.42,1.43-1.43,1.43Zm14.35-5.68H89.21v3h12.87Z"/><path class="cls-1" d="M121.86,50.74l-.44.16a1.23,1.23,0,0,1-1.52-.62l-4.61-9.66-4.66,9.66a1.21,1.21,0,0,1-1.51.62l-.45-.16a1.22,1.22,0,0,1-.68-1.67l5.78-12.2V31.16c0-.87.51-1.29,1.5-1.29s1.5.42,1.5,1.29v5.71l5.77,12.2A1.22,1.22,0,0,1,121.86,50.74Z"/><path class="cls-1" d="M129.47,38.05c.84,0,1.19.46,1.19,1.4s-.35,1.46-1.19,1.46h-2.23v9.25c0,.89-.49,1.31-1.48,1.31s-1.47-.42-1.47-1.31V30.9c0-.87.49-1.31,1.47-1.31s1.48.44,1.48,1.31v7.15Z"/><path class="cls-1" d="M133.8,41.84c-.94,0-1.36-.42-1.36-1.36v-4.4c0-.94.42-1.36,1.36-1.36h7.92V33h-8.06c-.87,0-1.22-.42-1.22-1.31s.35-1.36,1.22-1.36h9.58c1,0,1.41.45,1.41,1.39V36c0,.94-.42,1.36-1.36,1.36h-7.92v1.85h9c.84,0,1.21.42,1.21,1.31s-.37,1.36-1.21,1.36Zm12.72,1.27c3,0,4.88,1.5,4.88,4.24s-1.9,4.26-4.92,4.26h-8.06c-3,0-4.9-1.5-4.9-4.26s1.85-4.24,4.9-4.24Zm.12,5.86c1.29,0,1.85-.71,1.85-1.62s-.56-1.59-1.85-1.59h-8.36c-1.32,0-1.86.7-1.86,1.59S137,49,138.28,49Zm6.16-14.63c.85,0,1.2.47,1.2,1.41s-.35,1.43-1.2,1.43h-1.89v4.08c0,.89-.47,1.26-1.5,1.26s-1.5-.37-1.5-1.26V30.85c0-.86.51-1.26,1.5-1.26s1.5.4,1.5,1.26v3.49Z"/></svg>